<!DOCTYPE svg PUBLIC "-//W3C//DTD SVG 1.1//EN" "http://www.w3.org/Graphics/SVG/1.1/DTD/svg11.dtd">

<!-- Uploaded to: SVG Repo, www.svgrepo.com, Transformed by: SVG Repo Mixer Tools -->
<svg fill="#000000" width="20px" height="20px" viewBox="0 0 32 32" id="icon" xmlns="http://www.w3.org/2000/svg" stroke="#000000" stroke-width="0.00032">

<g id="SVGRepo_bgCarrier" stroke-width="0"/>

<g id="SVGRepo_iconCarrier">

<defs>

<style>.cls-1{fill:none;}</style>

</defs>

<title>user--profile</title>

<path d="M12,4A5,5,0,1,1,7,9a5,5,0,0,1,5-5m0-2a7,7,0,1,0,7,7A7,7,0,0,0,12,2Z"/>

<path d="M22,30H20V25a5,5,0,0,0-5-5H9a5,5,0,0,0-5,5v5H2V25a7,7,0,0,1,7-7h6a7,7,0,0,1,7,7Z"/>

<rect x="22" y="4" width="10" height="2"/>

<rect x="22" y="9" width="10" height="2"/>

<rect x="22" y="14" width="7" height="2"/>

<rect id="_Transparent_Rectangle_" data-name="&lt;Transparent Rectangle&gt;" class="cls-1" width="32" height="32"/>

</g>

</svg>